# xmcd
#
# Track frame offsets:
#	150
#	17200
#	35760
#	57180
#	75260
#	93620
#	95290
#	107910
#	131075
#	154345
#	173660
#	192555
#	212050
#
# Disc length: 3091 seconds
#
# Revision: 1
# Processed by: cddbd v1.5.1PL0 Copyright (c) Steve Scherf et al.
# Submitted via: EasyCDDAExtractor 6.5.0.1
#
DISCID=af0c110d
DTITLE=Melvin Riley - Bedroom Stories
DYEAR=1900
DGENRE=
TTITLE0=Ballin' 2000
TTITLE1=Knees Up, Heads Down
TTITLE2=My Good Thang
TTITLE3=Scream, Shout (ft. Jamie Foxx)
TTITLE4=You Complete Me
TTITLE5=My Good Thang (rmx)
TTITLE6=interlude
TTITLE7=When My Baby Cries (live)
TTITLE8=Why Your Friends Hatin'
TTITLE9=We Said
TTITLE10=Baby Get Yours
TTITLE11=Don't Forget About Us
TTITLE12=Must Have Been Crazy
EXTD=
EXTT0=
EXTT1=
EXTT2=
EXTT3=
EXTT4=
EXTT5=
EXTT6=
EXTT7=
EXTT8=
EXTT9=
EXTT10=
EXTT11=
EXTT12=
PLAYORDER=
